<svg width="16" height="20" viewBox="0 0 16 20" fill="none" xmlns="http://www.w3.org/2000/svg">
<path d="M12.6333 18C12.6333 18 13.8148 18 13.8148 16.75C13.8148 15.5 12.6333 11.75 7.90741 11.75C3.18148 11.75 2 15.5 2 16.75C2 18 3.18148 18 3.18148 18H12.6333ZM3.20747 16.75C3.19875 16.7487 3.19007 16.7471 3.18148 16.745C3.18266 16.415 3.37879 15.4575 4.07941 14.595C4.73159 13.7862 5.87762 13 7.90741 13C9.93601 13 11.082 13.7875 11.7354 14.595C12.436 15.4575 12.631 16.4162 12.6333 16.745L12.6239 16.7475C12.6184 16.7485 12.6129 16.7493 12.6073 16.75H3.20747ZM7.90741 9.25C8.5341 9.25 9.13513 8.98661 9.57827 8.51777C10.0214 8.04893 10.2704 7.41304 10.2704 6.75C10.2704 6.08696 10.0214 5.45107 9.57827 4.98223C9.13513 4.51339 8.5341 4.25 7.90741 4.25C7.28071 4.25 6.67968 4.51339 6.23654 4.98223C5.7934 5.45107 5.54444 6.08696 5.54444 6.75C5.54444 7.41304 5.7934 8.04893 6.23654 8.51777C6.67968 8.98661 7.28071 9.25 7.90741 9.25ZM11.4519 6.75C11.4519 7.24246 11.3602 7.73009 11.182 8.18506C11.0039 8.64003 10.7428 9.05343 10.4137 9.40165C10.0846 9.74987 9.69384 10.0261 9.26381 10.2145C8.83378 10.403 8.37287 10.5 7.90741 10.5C7.44194 10.5 6.98104 10.403 6.55101 10.2145C6.12098 10.0261 5.73024 9.74987 5.40111 9.40165C5.07197 9.05343 4.81089 8.64003 4.63277 8.18506C4.45464 7.73009 4.36296 7.24246 4.36296 6.75C4.36296 5.75544 4.73639 4.80161 5.40111 4.09835C6.06582 3.39509 6.96736 3 7.90741 3C8.84745 3 9.749 3.39509 10.4137 4.09835C11.0784 4.80161 11.4519 5.75544 11.4519 6.75Z" fill="#656565"/>
</svg>
