<svg width="25" height="21" viewBox="0 0 25 21" fill="none" xmlns="http://www.w3.org/2000/svg">
<path d="M20.0781 6.10313L14.6094 1.50937C14.4531 1.37812 14.2969 1.3125 14.0625 1.3125H6.25C5.39062 1.3125 4.6875 1.90312 4.6875 2.625V18.375C4.6875 19.0969 5.39062 19.6875 6.25 19.6875H18.75C19.6094 19.6875 20.3125 19.0969 20.3125 18.375V6.5625C20.3125 6.36562 20.2344 6.23438 20.0781 6.10313ZM14.0625 2.8875L18.4375 6.5625H14.0625V2.8875ZM18.75 18.375H6.25V2.625H12.5V6.5625C12.5 7.28438 13.2031 7.875 14.0625 7.875H18.75V18.375Z" fill="#306EFD"/>
<path d="M7.8125 14.4375H17.1875V15.75H7.8125V14.4375Z" fill="#306EFD"/>
<path d="M7.8125 10.5H17.1875V11.8125H7.8125V10.5Z" fill="#306EFD"/>
</svg>
