<svg width="18" height="17" viewBox="0 0 18 17" fill="none" xmlns="http://www.w3.org/2000/svg">
<path d="M16.1336 5.92769C15.7432 5.42513 15.1988 4.8365 14.6014 4.27231C14.004 3.70812 13.3807 3.19387 12.8486 2.82519C11.9419 2.19725 11.502 2.125 11.25 2.125H4.78125C4.00612 2.125 3.375 2.72106 3.375 3.45312V15.6719C3.375 16.4039 4.00612 17 4.78125 17H15.4688C16.2439 17 16.875 16.4039 16.875 15.6719V7.4375C16.875 7.1995 16.7985 6.78406 16.1336 5.92769ZM13.8049 5.02456C14.3449 5.53456 14.7679 5.99356 15.0806 6.375H12.3739V3.81969C12.7778 4.11506 13.2649 4.51456 13.8038 5.02456H13.8049ZM15.75 15.6719C15.75 15.8164 15.6217 15.9375 15.4688 15.9375H4.78125C4.70693 15.9367 4.6359 15.9084 4.58334 15.8588C4.53079 15.8091 4.50088 15.7421 4.5 15.6719V3.45312C4.5 3.30969 4.62825 3.1875 4.78125 3.1875H11.25V6.90625C11.25 7.04715 11.3093 7.18227 11.4148 7.2819C11.5202 7.38153 11.6633 7.4375 11.8125 7.4375H15.75V15.6719Z" fill="#656565"/>
<path d="M10.5986 0.700188C9.69187 0.07225 9.252 0 9 0H2.53125C1.75612 0 1.125 0.596062 1.125 1.32812V13.5469C1.125 14.1886 1.60875 14.7252 2.25 14.8484V1.32812C2.25 1.18469 2.37937 1.0625 2.53125 1.0625H11.0891C10.9287 0.937647 10.7647 0.816834 10.5975 0.700188H10.5986Z" fill="#656565"/>
</svg>
