<svg width="17" height="18" viewBox="0 0 17 18" fill="none" xmlns="http://www.w3.org/2000/svg">
<path d="M3.55973 17.2802C3.33694 17.2802 3.12329 17.2005 2.96576 17.0587C2.80823 16.917 2.71973 16.7247 2.71973 16.5242V10.4762C2.71973 10.2757 2.80823 10.0834 2.96576 9.94158C3.12329 9.79981 3.33694 9.72016 3.55973 9.72016C3.78251 9.72016 3.99617 9.79981 4.1537 9.94158C4.31123 10.0834 4.39973 10.2757 4.39973 10.4762V16.5242C4.39973 16.7247 4.31123 16.917 4.1537 17.0587C3.99617 17.2005 3.78251 17.2802 3.55973 17.2802ZM7.75973 17.2802C7.53694 17.2802 7.32329 17.2005 7.16576 17.0587C7.00823 16.917 6.91973 16.7247 6.91973 16.5242V2.91616C6.91973 2.71565 7.00823 2.52336 7.16576 2.38158C7.32329 2.23981 7.53694 2.16016 7.75973 2.16016C7.98251 2.16016 8.19617 2.23981 8.3537 2.38158C8.51123 2.52336 8.59973 2.71565 8.59973 2.91616V16.5242C8.59973 16.7247 8.51123 16.917 8.3537 17.0587C8.19617 17.2005 7.98251 17.2802 7.75973 17.2802ZM11.9597 17.2802C11.7369 17.2802 11.5233 17.2005 11.3658 17.0587C11.2082 16.917 11.1197 16.7247 11.1197 16.5242V7.45216C11.1197 7.25165 11.2082 7.05936 11.3658 6.91758C11.5233 6.77581 11.7369 6.69616 11.9597 6.69616C12.1825 6.69616 12.3962 6.77581 12.5537 6.91758C12.7112 7.05936 12.7997 7.25165 12.7997 7.45216V16.5242C12.7997 16.7247 12.7112 16.917 12.5537 17.0587C12.3962 17.2005 12.1825 17.2802 11.9597 17.2802ZM16.1597 17.2802C15.9369 17.2802 15.7233 17.2005 15.5658 17.0587C15.4082 16.917 15.3197 16.7247 15.3197 16.5242V13.5002C15.3197 13.2997 15.4082 13.1074 15.5658 12.9656C15.7233 12.8238 15.9369 12.7442 16.1597 12.7442C16.3825 12.7442 16.5962 12.8238 16.7537 12.9656C16.9112 13.1074 16.9997 13.2997 16.9997 13.5002V16.5242C16.9997 16.7247 16.9112 16.917 16.7537 17.0587C16.5962 17.2005 16.3825 17.2802 16.1597 17.2802Z" fill="#656565"/>
</svg>
