<svg width="18" height="17" viewBox="0 0 18 17" fill="none" xmlns="http://www.w3.org/2000/svg">
<path d="M16.3288 2.75H12.7188V1.89062C12.7182 1.38937 12.5188 0.908817 12.1644 0.554379C11.8099 0.199941 11.3294 0.000568634 10.8281 0H6.70312C6.20187 0.000568634 5.72132 0.199941 5.36688 0.554379C5.01244 0.908817 4.81307 1.38937 4.8125 1.89062V2.75H1.20381C0.884836 2.75036 0.579027 2.87724 0.353477 3.10279C0.127926 3.32834 0.00105137 3.63415 0.00068745 3.95312V10.8148C0.000515575 10.8193 0 10.8237 0 10.8281C0 10.8326 0.000515575 10.837 0.00068745 10.8414V14.9531C0.00105137 15.2721 0.127926 15.5779 0.353477 15.8035C0.579027 16.029 0.884836 16.1559 1.20381 16.1562H16.3288C16.6478 16.1559 16.9536 16.029 17.1791 15.8035C17.4047 15.5779 17.5316 15.2721 17.5319 14.9531V3.95312C17.5316 3.63415 17.4047 3.32834 17.1791 3.10279C16.9536 2.87724 16.6478 2.75036 16.3288 2.75ZM5.84375 1.89062C5.844 1.66278 5.93462 1.44434 6.09573 1.28323C6.25684 1.12212 6.47528 1.0315 6.70312 1.03125H10.8281C11.056 1.0315 11.2744 1.12212 11.4355 1.28323C11.5966 1.44434 11.6873 1.66278 11.6875 1.89062V2.75H5.84375V1.89062ZM1.20381 3.78125H16.3288C16.3744 3.78132 16.4181 3.79945 16.4503 3.83167C16.4825 3.86388 16.5006 3.90756 16.5007 3.95312V10.3125H1.03194V3.95312C1.03201 3.90756 1.05014 3.86388 1.08235 3.83167C1.11457 3.79945 1.15825 3.78132 1.20381 3.78125ZM16.3288 15.125H1.20381C1.15825 15.1249 1.11457 15.1068 1.08235 15.0746C1.05014 15.0424 1.03201 14.9987 1.03194 14.9531V11.3438H16.5007V14.9531C16.5006 14.9987 16.4825 15.0424 16.4503 15.0746C16.4181 15.1068 16.3744 15.1249 16.3288 15.125Z" fill="#656565"/>
</svg>
