<svg width="30" height="27" viewBox="0 0 30 27" fill="none" xmlns="http://www.w3.org/2000/svg">
<path d="M23.2026 26L23.2 25.9999C22.9735 25.9994 22.748 25.9765 22.5275 25.9319L22.5275 25.9318L22.5162 25.9297C17.2586 24.9287 12.4241 22.5837 8.56549 19.1744C4.7988 15.7631 2.19618 11.431 1.05828 6.70647C0.961258 6.27545 0.985478 5.829 1.13017 5.40679C1.27573 4.98207 1.54092 4.5892 1.90996 4.27072L1.91001 4.27079L1.91971 4.26219L5.38875 1.1891C5.46075 1.12705 5.55091 1.0754 5.65534 1.0417C5.75811 1.00853 5.86921 0.994581 5.98079 1.0019C6.09612 1.01425 6.2038 1.04879 6.29659 1.10003C6.39178 1.1526 6.46634 1.21988 6.51944 1.29226L6.52001 1.29304L10.8547 7.18967C10.8863 7.2359 10.8955 7.28003 10.8932 7.31715L11.8912 7.37993L10.8932 7.31715C10.8908 7.35567 10.8747 7.4041 10.8307 7.45292C10.8305 7.45308 10.8304 7.45324 10.8302 7.4534L8.65223 9.84933L8.19492 10.3524L8.49452 10.9627C9.42061 12.8491 10.7289 14.549 12.3443 15.9726C13.9499 17.4448 15.8428 18.6167 17.919 19.4286L18.4301 19.6285L18.8733 19.3046L21.5716 17.3321C21.572 17.3319 21.5723 17.3316 21.5726 17.3314C21.6398 17.2828 21.7306 17.2482 21.8339 17.242C21.9333 17.2361 22.028 17.2576 22.1051 17.2976L28.6424 21.1867L28.6571 21.1954L28.6721 21.2036C28.7706 21.2578 28.8471 21.3276 28.9007 21.4026C28.954 21.4772 28.9843 21.556 28.9952 21.6324C29.0061 21.7086 28.9985 21.7869 28.971 21.8633C28.9441 21.9382 28.8971 22.0137 28.8272 22.0816L25.4501 25.1579L25.4481 25.1597C25.1601 25.4234 24.8139 25.6361 24.4275 25.7817L24.7801 26.7175L24.4275 25.7817C24.0409 25.9274 23.6245 26.0021 23.2026 26Z" stroke="#838383" stroke-width="2"/>
</svg>
