<svg width="19" height="22" viewBox="0 0 19 22" fill="none" xmlns="http://www.w3.org/2000/svg">
<path d="M17.5156 9.08887H15.7344V4.27637C15.7341 4.00296 15.6402 3.74084 15.4732 3.54751C15.3062 3.35419 15.0799 3.24544 14.8438 3.24512H1.48438C1.24825 3.24544 1.02188 3.35419 0.854912 3.54751C0.687947 3.74084 0.594025 4.00296 0.59375 4.27637V14.8467C0.594025 15.1201 0.687947 15.3822 0.854912 15.5755C1.02188 15.7689 1.24825 15.8776 1.48438 15.8779H7.86719V18.0264H5.64062V19.4014H11.2812V18.0264H9.05469V15.8779H12.4688V18.3701C12.469 18.6435 12.5629 18.9057 12.7299 19.099C12.8969 19.2923 13.1232 19.4011 13.3594 19.4014H17.5156C17.7518 19.4011 17.9781 19.2923 18.1451 19.099C18.3121 18.9057 18.406 18.6435 18.4062 18.3701V10.1201C18.406 9.84671 18.3121 9.58458 18.1451 9.39125C17.9781 9.19792 17.7518 9.08917 17.5156 9.08887ZM12.4688 10.1201V14.5029H1.78125V4.62012H14.5469V9.08887H13.3594C13.1232 9.08917 12.8969 9.19792 12.7299 9.39125C12.5629 9.58458 12.469 9.84671 12.4688 10.1201ZM17.2188 18.0264H13.6562V10.4639H17.2188V18.0264Z" fill="#656565"/>
</svg>
