<svg width="26" height="20" viewBox="0 0 26 20" fill="none" xmlns="http://www.w3.org/2000/svg">
    <path d="M16.0009 15.7443H14.016V9.20469C14.016 9.08593 13.9196 8.98877 13.8017 8.98877H12.1946C12.0767 8.98877 11.9803 9.08593 11.9803 9.20469V15.7443H10.0009C9.82139 15.7443 9.72228 15.9521 9.8321 16.0925L12.8321 19.9169C12.8521 19.9428 12.8778 19.9636 12.907 19.978C12.9362 19.9923 12.9683 19.9998 13.0009 19.9998C13.0334 19.9998 13.0655 19.9923 13.0947 19.978C13.1239 19.9636 13.1496 19.9428 13.1696 19.9169L16.1696 16.0925C16.2794 15.9521 16.1803 15.7443 16.0009 15.7443Z" fill="#208414"/>
    <path d="M7.42857 17.1939H6.35446C3.39732 17.1939 1 14.7783 1 11.7959C1 9.29127 2.69554 7.18337 4.99107 6.57609C6.21786 3.31573 9.34375 1 13.0054 1C16.667 1 19.7929 3.31842 21.0196 6.57879C23.3098 7.18876 25 9.29397 25 11.7959C25 14.7783 22.6027 17.1939 19.6455 17.1939H18.5714" stroke="#208414"/>
</svg>