<svg width="22" height="22" viewBox="0 0 22 22" fill="none" xmlns="http://www.w3.org/2000/svg">
    <path d="M0.5 11C0.5 5.20159 5.20159 0.5 11 0.5C16.7984 0.5 21.5 5.20159 21.5 11C21.5 16.7984 16.7984 21.5 11 21.5C5.20159 21.5 0.5 16.7984 0.5 11Z" stroke="#208414"/>
    <path d="M13.74 6.2049C13.0034 5.55914 12.0311 5.20557 10.9999 5.20557C9.96861 5.20557 8.99629 5.56159 8.25968 6.2049C7.49361 6.87521 7.07129 7.77632 7.07129 8.74128V8.92789C7.07129 9.03592 7.15968 9.12432 7.26772 9.12432H8.44629C8.55433 9.12432 8.64272 9.03592 8.64272 8.92789V8.74128C8.64272 7.65847 9.70098 6.77699 10.9999 6.77699C12.2987 6.77699 13.357 7.65847 13.357 8.74128C13.357 9.5049 12.8168 10.2047 11.9796 10.5263C11.459 10.7252 11.017 11.0739 10.7003 11.5306C10.3787 11.9971 10.2117 12.5569 10.2117 13.1241V13.652C10.2117 13.76 10.3001 13.8484 10.4081 13.8484H11.5867C11.6947 13.8484 11.7831 13.76 11.7831 13.652V13.0946C11.7844 12.8563 11.8575 12.6238 11.9928 12.4276C12.1281 12.2314 12.3195 12.0805 12.5418 11.9946C13.9905 11.4373 14.926 10.1605 14.926 8.74128C14.9284 7.77632 14.5061 6.87521 13.74 6.2049ZM10.0177 16.402C10.0177 16.6625 10.1212 16.9123 10.3054 17.0965C10.4896 17.2807 10.7394 17.3841 10.9999 17.3841C11.2603 17.3841 11.5102 17.2807 11.6943 17.0965C11.8785 16.9123 11.982 16.6625 11.982 16.402C11.982 16.1415 11.8785 15.8917 11.6943 15.7075C11.5102 15.5233 11.2603 15.4199 10.9999 15.4199C10.7394 15.4199 10.4896 15.5233 10.3054 15.7075C10.1212 15.8917 10.0177 16.1415 10.0177 16.402Z" fill="#208414"/>
</svg>