<svg width="19" height="17" viewBox="0 0 19 17" fill="none" xmlns="http://www.w3.org/2000/svg">
<path d="M17.0299 5.92769C16.6179 5.42513 16.0431 4.8365 15.4126 4.27231C14.782 3.70812 14.1241 3.19387 13.5624 2.82519C12.6053 2.19725 12.141 2.125 11.875 2.125H5.04688C4.22869 2.125 3.5625 2.72106 3.5625 3.45312V15.6719C3.5625 16.4039 4.22869 17 5.04688 17H16.3281C17.1463 17 17.8125 16.4039 17.8125 15.6719V7.4375C17.8125 7.1995 17.7317 6.78406 17.0299 5.92769ZM14.5718 5.02456C15.1418 5.53456 15.5883 5.99356 15.9184 6.375H13.0613V3.81969C13.4876 4.11506 14.0018 4.51456 14.5706 5.02456H14.5718ZM16.625 15.6719C16.625 15.8164 16.4896 15.9375 16.3281 15.9375H5.04688C4.96843 15.9367 4.89345 15.9084 4.83798 15.8588C4.7825 15.8091 4.75092 15.7421 4.75 15.6719V3.45312C4.75 3.30969 4.88538 3.1875 5.04688 3.1875H11.875V6.90625C11.875 7.04715 11.9376 7.18227 12.0489 7.2819C12.1603 7.38153 12.3113 7.4375 12.4688 7.4375H16.625V15.6719Z" fill="#656565"/>
<path d="M11.1874 0.700188C10.2303 0.07225 9.766 0 9.5 0H2.67188C1.85369 0 1.1875 0.596062 1.1875 1.32812V13.5469C1.1875 14.1886 1.69813 14.7252 2.375 14.8484V1.32812C2.375 1.18469 2.51156 1.0625 2.67188 1.0625H11.7052C11.5358 0.937647 11.3628 0.816834 11.1862 0.700188H11.1874Z" fill="#656565"/>
</svg>
