<svg width="20" height="20" viewBox="0 0 20 20" fill="none" xmlns="http://www.w3.org/2000/svg">
<path d="M0 10C0 4.47715 4.47715 0 10 0C15.5228 0 20 4.47715 20 10C20 15.5228 15.5228 20 10 20C4.47715 20 0 15.5228 0 10Z" fill="#306EFD"/>
<path d="M12.2754 12.7256V14H7.46582C7.5179 13.5182 7.67415 13.0625 7.93457 12.6328C8.19499 12.1999 8.70931 11.627 9.47754 10.9141C10.096 10.3379 10.4753 9.94727 10.6152 9.74219C10.804 9.45898 10.8984 9.17904 10.8984 8.90234C10.8984 8.59635 10.8154 8.36198 10.6494 8.19922C10.4867 8.0332 10.2604 7.9502 9.9707 7.9502C9.68424 7.9502 9.45638 8.03646 9.28711 8.20898C9.11784 8.38151 9.02018 8.66797 8.99414 9.06836L7.62695 8.93164C7.70833 8.17643 7.96387 7.63444 8.39355 7.30566C8.82324 6.97689 9.36035 6.8125 10.0049 6.8125C10.7113 6.8125 11.2663 7.00293 11.6699 7.38379C12.0736 7.76465 12.2754 8.23828 12.2754 8.80469C12.2754 9.12695 12.2168 9.43457 12.0996 9.72754C11.9857 10.0173 11.8034 10.3216 11.5527 10.6406C11.3867 10.8522 11.0872 11.1566 10.6543 11.5537C10.2214 11.9508 9.94629 12.2145 9.8291 12.3447C9.71517 12.4749 9.6224 12.6019 9.55078 12.7256H12.2754Z" fill="white"/>
</svg>
