<svg width="17" height="17" viewBox="0 0 17 17" fill="none" xmlns="http://www.w3.org/2000/svg">
<path d="M15.4723 8.59458L15.3192 8.79693L15.3921 9.03998C15.4513 9.23727 15.4821 9.44627 15.4858 9.66108C15.485 10.13 15.3306 10.5806 15.0519 10.9489L14.8988 11.1512L14.9717 11.3943C15.0313 11.5931 15.0613 11.799 15.0613 12.0094C15.0613 12.4797 14.9068 12.9318 14.6274 13.3011L14.4742 13.5035L14.5472 13.7465C14.6068 13.9454 14.6368 14.1512 14.6368 14.3616C14.6368 15.2193 14.127 15.992 13.3349 16.3298L13.3321 16.331C13.2275 16.3764 13.1109 16.4005 12.9876 16.4005H0.65625C0.569404 16.4005 0.5 16.3311 0.5 16.2443V8.77941C0.5 8.69256 0.569404 8.62316 0.65625 8.62316H3.16493H3.53743L3.64402 8.26623L5.54863 1.8883L5.54874 1.88833L5.55158 1.87801C5.77473 1.06785 6.52053 0.500015 7.3623 0.500019L7.36416 0.500012C7.59477 0.499154 7.8231 0.545596 8.03504 0.636468C8.24699 0.727341 8.43804 0.860712 8.59641 1.02834L8.59715 1.02913C8.92159 1.37106 9.08759 1.81637 9.06542 2.28928C9.06541 2.28944 9.06541 2.2896 9.0654 2.28975L8.94239 4.80933L8.91679 5.33371H9.4418H14.3596H14.36C14.5182 5.33356 14.6736 5.37568 14.81 5.45571C15.4941 5.85702 15.9062 6.56916 15.9062 7.30285C15.9062 7.7732 15.7518 8.22529 15.4723 8.59458Z" stroke="black"/>
</svg>
