<svg width="158" height="31" viewBox="0 0 158 31" fill="none" xmlns="http://www.w3.org/2000/svg">
<g clip-path="url(#clip0)">
<path d="M11.5003 0H0.98584V11.1286C0.98584 17.0222 5.6938 21.7986 11.5003 21.7986V0Z" fill="#306EFD"/>
<path d="M21.4764 19.0146C15.6686 19.0146 10.9619 23.7923 10.9619 29.6847H21.4764V19.0146Z" fill="#306EFD"/>
<path d="M34.9512 4.83398H37.9152V20.6645C37.9152 21.1939 38.0498 21.6073 38.319 21.9086C38.5882 22.2099 38.9656 22.3599 39.4512 22.3599C39.6484 22.3599 39.8779 22.3233 40.1388 22.2502C40.3983 22.1769 40.6459 22.0953 40.8791 22.0037L41.3106 24.3554C40.8791 24.5566 40.3671 24.7152 39.7746 24.8335C39.182 24.9518 38.6519 25.0115 38.1844 25.0115C37.1603 25.0115 36.3658 24.7286 35.7998 24.1639C35.2336 23.5991 34.9512 22.7966 34.9512 21.7574V4.83398Z" fill="#306EFD"/>
<path d="M49.4189 25.0662C48.3227 25.0662 47.3264 24.8699 46.4285 24.4783C45.5307 24.0868 44.7626 23.5538 44.1244 22.8793C43.4862 22.2048 42.9934 21.4217 42.6425 20.5277C42.2926 19.6349 42.1172 18.6872 42.1172 17.6846C42.1172 16.682 42.2926 15.7294 42.6425 14.828C42.9922 13.9254 43.4862 13.1326 44.1244 12.4496C44.7614 11.7666 45.5295 11.2287 46.4285 10.836C47.3264 10.4444 48.3324 10.248 49.4466 10.248C50.5415 10.248 51.5343 10.4493 52.4238 10.8494C53.3132 11.2506 54.0716 11.7836 54.7002 12.4484C55.3288 13.1143 55.8096 13.8888 56.1414 14.7719C56.4731 15.6562 56.6401 16.5808 56.6401 17.5467C56.6401 17.7651 56.6306 17.97 56.6125 18.1615C56.5945 18.3529 56.5764 18.5128 56.5584 18.6396H45.2698C45.324 19.2776 45.4718 19.852 45.7146 20.3618C45.9573 20.8729 46.2711 21.3145 46.6581 21.6876C47.0439 22.0608 47.4838 22.3487 47.9778 22.5488C48.4717 22.75 48.9887 22.85 49.5271 22.85C49.9213 22.85 50.3131 22.8 50.6989 22.7C51.0848 22.6 51.4394 22.4536 51.7627 22.2621C52.086 22.0707 52.3732 21.8389 52.6245 21.5644C52.8757 21.2912 53.0728 20.99 53.217 20.6619L55.7495 21.3998C55.2639 22.4756 54.4611 23.355 53.3384 24.038C52.2158 24.7247 50.9093 25.0662 49.4189 25.0662ZM53.7026 16.5637C53.6485 15.9623 53.5006 15.4062 53.2579 14.8963C53.0151 14.3865 52.705 13.9535 52.3288 13.5973C51.9514 13.2424 51.5115 12.9643 51.009 12.7631C50.5055 12.5631 49.9754 12.4618 49.4189 12.4618C48.8625 12.4618 48.3372 12.5618 47.8432 12.7631C47.3492 12.9643 46.9141 13.2412 46.5367 13.5973C46.1592 13.9523 45.8539 14.3865 45.6208 14.8963C45.3876 15.4074 45.2433 15.9623 45.1893 16.5637H53.7026Z" fill="#306EFD"/>
<path d="M71.6989 24.7933H68.7349V16.7823C68.7349 15.4333 68.5233 14.4539 68.1015 13.8428C67.6796 13.2329 67.0546 12.9268 66.2289 12.9268C65.7974 12.9268 65.3671 13.0084 64.9356 13.1732C64.5041 13.3366 64.1002 13.5695 63.7229 13.8708C63.3454 14.1721 63.0089 14.527 62.712 14.9369C62.4151 15.3467 62.1868 15.7979 62.0245 16.2907V24.7933H59.0605V10.4934H61.7541V13.3646C62.2925 12.3987 63.0738 11.6375 64.0979 11.0814C65.1219 10.5251 66.2529 10.2471 67.4921 10.2471C68.3359 10.2471 69.0282 10.402 69.5666 10.7118C70.1052 11.0216 70.5318 11.446 70.8467 11.9828C71.1604 12.5206 71.3804 13.1402 71.5066 13.8415C71.6315 14.5428 71.6952 15.2857 71.6952 16.0699V24.7933H71.6989Z" fill="#306EFD"/>
<path d="M80.8864 25.0662C79.9345 25.0662 79.0547 24.8699 78.2457 24.4783C77.4381 24.0868 76.7374 23.5537 76.1448 22.8792C75.5523 22.2048 75.0895 21.4169 74.7566 20.5143C74.4237 19.6116 74.2578 18.6421 74.2578 17.6028C74.2578 16.6002 74.4152 15.6574 74.729 14.7732C75.0426 13.8888 75.4838 13.1094 76.0486 12.4349C76.6148 11.7605 77.2783 11.2275 78.0427 10.836C78.8059 10.4444 79.646 10.248 80.5619 10.248C81.6941 10.248 82.6905 10.5261 83.5523 11.0823C84.4141 11.6384 85.0884 12.3447 85.5728 13.2009V4.83496H88.5367V21.2387C88.5367 21.5852 88.5944 21.8315 88.7122 21.9767C88.8288 22.1231 89.0392 22.2048 89.3456 22.2231V24.793C89.0403 24.8478 88.7927 24.8844 88.6052 24.9027C88.4165 24.921 88.2591 24.9296 88.1341 24.9296C87.5415 24.9296 87.0559 24.7747 86.6785 24.4649C86.3011 24.1551 86.0944 23.7538 86.0584 23.2622L86.0042 22.1962C85.4838 23.089 84.7735 23.7916 83.8756 24.3014C82.979 24.8113 81.9814 25.0662 80.8864 25.0662ZM81.6136 22.4963C82.0451 22.4963 82.4753 22.4231 82.9068 22.278C83.3383 22.1328 83.7326 21.9316 84.0919 21.6767C84.4514 21.4217 84.7614 21.1204 85.0211 20.774C85.2807 20.4277 85.4658 20.0544 85.574 19.6532V15.9074C85.4129 15.4525 85.1834 15.0329 84.8864 14.6499C84.5896 14.2669 84.253 13.9388 83.8756 13.6656C83.4983 13.3924 83.098 13.1827 82.6773 13.0362C82.2555 12.8911 81.8288 12.8179 81.3973 12.8179C80.8047 12.8179 80.2614 12.9545 79.7674 13.2277C79.2734 13.5009 78.8467 13.8657 78.4874 14.3218C78.128 14.778 77.8443 15.2976 77.6388 15.8806C77.4321 16.4636 77.3287 17.0661 77.3287 17.6846C77.3287 18.3407 77.4405 18.9603 77.6652 19.5433C77.89 20.1263 78.1989 20.6374 78.5944 21.0741C78.9898 21.5119 79.4429 21.8584 79.9549 22.1132C80.4681 22.3694 81.021 22.4963 81.6136 22.4963Z" fill="#306EFD"/>
<path d="M99.9069 25.0664C98.8289 25.0664 97.854 24.8066 96.9838 24.2871C96.1125 23.7674 95.425 23.0698 94.9226 22.1952V24.7932H92.3096V4.83398H95.2735V13.1999C95.83 12.2888 96.5259 11.5692 97.3613 11.0398C98.1967 10.5117 99.1798 10.247 100.312 10.247C101.246 10.247 102.099 10.452 102.871 10.8618C103.643 11.2716 104.303 11.8192 104.852 12.5022C105.4 13.1853 105.822 13.9781 106.118 14.8806C106.414 15.7833 106.562 16.7261 106.562 17.7104C106.562 18.7313 106.391 19.6887 106.05 20.5815C105.709 21.4744 105.242 22.2538 104.649 22.9198C104.056 23.5857 103.35 24.1089 102.534 24.492C101.717 24.8749 100.841 25.0664 99.9069 25.0664ZM99.1257 22.4965C99.7724 22.4965 100.365 22.3648 100.903 22.1001C101.442 21.8366 101.905 21.4854 102.29 21.0475C102.676 20.6096 102.978 20.1047 103.193 19.5302C103.408 18.9557 103.516 18.3508 103.516 17.7117C103.516 17.0737 103.413 16.459 103.206 15.8662C103 15.2747 102.712 14.7551 102.344 14.3074C101.975 13.861 101.537 13.5012 101.025 13.228C100.513 12.9548 99.9515 12.8182 99.3409 12.8182C98.425 12.8182 97.6125 13.1194 96.9022 13.7207C96.1918 14.322 95.6497 15.0515 95.2723 15.9077V19.6803C95.3805 20.0998 95.5692 20.4779 95.8385 20.8146C96.1077 21.1524 96.4213 21.4476 96.7808 21.7037C97.1401 21.9587 97.5259 22.155 97.9395 22.2916C98.3529 22.4282 98.7483 22.4965 99.1257 22.4965Z" fill="#306EFD"/>
<path d="M115.614 25.0662C114.517 25.0662 113.521 24.8699 112.623 24.4783C111.725 24.0868 110.958 23.5538 110.32 22.8793C109.681 22.2048 109.188 21.4217 108.837 20.5277C108.488 19.6349 108.312 18.6872 108.312 17.6846C108.312 16.682 108.488 15.7294 108.837 14.828C109.187 13.9254 109.681 13.1326 110.32 12.4496C110.957 11.7666 111.724 11.2287 112.623 10.836C113.521 10.4444 114.528 10.248 115.642 10.248C116.736 10.248 117.729 10.4493 118.619 10.8494C119.508 11.2506 120.266 11.7836 120.895 12.4484C121.523 13.1143 122.004 13.8888 122.337 14.7719C122.668 15.6562 122.835 16.5808 122.835 17.5467C122.835 17.7651 122.825 17.97 122.808 18.1615C122.789 18.3529 122.771 18.5128 122.754 18.6396H111.464C111.518 19.2776 111.667 19.852 111.91 20.3618C112.152 20.8729 112.466 21.3145 112.852 21.6876C113.238 22.0608 113.677 22.3487 114.172 22.5488C114.665 22.75 115.182 22.85 115.721 22.85C116.117 22.85 116.507 22.8 116.892 22.7C117.279 22.6 117.633 22.4536 117.957 22.2621C118.28 22.0707 118.567 21.8389 118.818 21.5644C119.07 21.2912 119.266 20.99 119.411 20.6619L121.943 21.3998C121.458 22.4756 120.655 23.355 119.533 24.038C118.412 24.7247 117.105 25.0662 115.614 25.0662ZM119.898 16.5637C119.844 15.9623 119.697 15.4062 119.454 14.8963C119.211 14.3865 118.902 13.9535 118.525 13.5973C118.147 13.2424 117.708 12.9643 117.205 12.7631C116.702 12.5631 116.172 12.4618 115.615 12.4618C115.059 12.4618 114.534 12.5618 114.039 12.7631C113.545 12.9643 113.111 13.2412 112.732 13.5973C112.355 13.9523 112.05 14.3865 111.817 14.8963C111.584 15.4074 111.44 15.9623 111.386 16.5637H119.898Z" fill="#306EFD"/>
<path d="M133.18 13.0911C132.031 13.1276 131.012 13.396 130.123 13.8973C129.233 14.3985 128.601 15.1145 128.224 16.0439V24.7927H125.259V10.4931H128.007V13.6924C128.493 12.708 129.125 11.9201 129.907 11.3274C130.687 10.7358 131.526 10.4113 132.425 10.3564C132.605 10.3564 132.753 10.3564 132.87 10.3564C132.987 10.3564 133.09 10.3663 133.18 10.3833V13.0911Z" fill="#306EFD"/>
<path d="M143.257 13.0911C142.108 13.1276 141.089 13.396 140.199 13.8973C139.31 14.3985 138.678 15.1145 138.3 16.0439V24.7927H135.337V10.4931H138.084V13.6924C138.568 12.708 139.202 11.9201 139.983 11.3274C140.765 10.7358 141.604 10.4113 142.503 10.3564C142.681 10.3564 142.829 10.3564 142.947 10.3564C143.064 10.3564 143.168 10.3663 143.257 10.3833V13.0911Z" fill="#306EFD"/>
<path d="M145.897 28.1555C146.166 28.2103 146.43 28.2555 146.691 28.2921C146.951 28.3286 147.162 28.3469 147.324 28.3469C147.558 28.3469 147.76 28.2969 147.931 28.197C148.101 28.097 148.277 27.9188 148.456 27.6639C148.634 27.409 148.82 27.0492 149.008 26.5845C149.197 26.1198 149.417 25.5221 149.669 24.7939L143.876 10.4941H146.921L151.285 22.1412L155.165 10.4941H157.967L151.58 28.1018C151.294 28.9215 150.794 29.6094 150.086 30.1656C149.375 30.7217 148.464 30.9998 147.351 30.9998C147.136 30.9998 146.912 30.9864 146.678 30.9584C146.445 30.9315 146.184 30.8718 145.897 30.7802V28.1555Z" fill="#306EFD"/>
</g>
<defs>
<clipPath id="clip0">
<rect width="158" height="31" fill="white"/>
</clipPath>
</defs>
</svg>
