<svg width="26" height="27" viewBox="0 0 26 27" fill="none" xmlns="http://www.w3.org/2000/svg">
<path d="M1 13.5C1 6.56124 6.4085 1 13 1C19.5915 1 25 6.56124 25 13.5C25 20.4388 19.5915 26 13 26C6.4085 26 1 20.4388 1 13.5Z" stroke="#D30000" stroke-width="2"/>
<path d="M11.8394 20.1292C11.8394 20.4489 11.9616 20.7555 12.1793 20.9815C12.397 21.2075 12.6922 21.3345 13.0001 21.3345C13.3079 21.3345 13.6031 21.2075 13.8208 20.9815C14.0385 20.7555 14.1608 20.4489 14.1608 20.1292C14.1608 19.8095 14.0385 19.5029 13.8208 19.2769C13.6031 19.0508 13.3079 18.9238 13.0001 18.9238C12.6922 18.9238 12.397 19.0508 12.1793 19.2769C11.9616 19.5029 11.8394 19.8095 11.8394 20.1292Z" fill="#D30000"/>
<path d="M13 5V18" stroke="#D30000" stroke-width="2"/>
</svg>
