<svg width="25" height="27" viewBox="0 0 25 27" fill="none" xmlns="http://www.w3.org/2000/svg">
<path d="M13.1398 26C9.62028 26 6.31791 24.6359 3.84098 22.159C1.36404 19.6822 3.07733e-07 16.3796 3.07733e-07 12.86C-0.000525102 10.4321 0.671756 8.05143 1.94222 5.98238C3.21269 3.91333 5.03165 2.23679 7.1972 1.13885C7.41999 1.02528 7.67131 0.979847 7.91976 1.00822C8.16822 1.0366 8.40281 1.13753 8.59426 1.29841C8.78571 1.45929 8.92554 1.673 8.99628 1.91285C9.06702 2.15271 9.06554 2.40809 8.99204 2.64711C8.37408 4.6431 8.31335 6.77001 8.8164 8.798C9.31944 10.826 10.3671 12.678 11.8463 14.1538C12.9077 15.2231 14.1708 16.0713 15.5623 16.6493C16.9538 17.2272 18.4461 17.5234 19.9528 17.5207C21.1055 17.5215 22.2516 17.3486 23.3527 17.0078C23.5918 16.9343 23.8472 16.9328 24.0871 17.0035C24.327 17.0742 24.5407 17.214 24.7016 17.4055C24.8625 17.597 24.9634 17.8316 24.9918 18.0801C25.0201 18.3286 24.9747 18.5799 24.8611 18.8027C23.7631 20.9683 22.0866 22.7872 20.0175 24.0577C17.9485 25.3282 15.5678 26.0005 13.1398 26V26ZM7.15173 3.07145C5.47246 4.09318 4.08529 5.53099 3.1244 7.2458C2.16351 8.9606 1.66142 10.8944 1.66671 12.86C1.66671 19.1864 6.81349 24.3333 13.1398 24.3333C15.1055 24.3386 17.0393 23.8365 18.7541 22.8756C20.4689 21.9147 21.9068 20.5276 22.9285 18.8483C21.9528 19.0741 20.9545 19.1879 19.9529 19.1875C18.2272 19.1908 16.518 18.8518 14.9243 18.19C13.3305 17.5283 11.8838 16.557 10.6679 15.3324C9.08837 13.7559 7.93663 11.8028 7.32142 9.65762C6.7062 7.51241 6.6478 5.24581 7.15173 3.07176V3.07145Z" fill="#656565"/>
</svg>
