<svg width="17" height="19" viewBox="0 0 17 19" fill="none" xmlns="http://www.w3.org/2000/svg">
<path d="M1.2749 3.67175V10.734C1.2749 14.5787 4.31965 17.6947 8.075 17.6947C11.8304 17.6947 14.8751 14.5787 14.8751 10.734V3.67555L8.03415 1.3737L1.2749 3.67175ZM8.03225 0L16.15 2.7303V10.734C16.15 15.2988 12.5343 19 8.075 19C3.6157 19 0 15.2988 0 10.734V2.7303L8.03225 0ZM12.2303 6.16075C12.1683 6.10379 12.0954 6.0599 12.0161 6.0317C11.9368 6.0035 11.8526 5.99158 11.7685 5.99663C11.6845 6.00168 11.6023 6.02362 11.5269 6.06112C11.4515 6.09862 11.3844 6.15092 11.3297 6.2149L7.2295 10.9354L4.5809 8.0047C4.5249 7.94196 4.45686 7.89113 4.38081 7.85523C4.30477 7.81933 4.22228 7.7991 4.13825 7.79573C4.05423 7.79236 3.97038 7.80593 3.89171 7.83563C3.81304 7.86533 3.74114 7.91055 3.6803 7.9686C3.55574 8.08766 3.48241 8.25052 3.47585 8.4227C3.46929 8.59489 3.53001 8.76286 3.64515 8.89105L6.77065 12.349C6.83018 12.416 6.90336 12.4694 6.98526 12.5056C7.06715 12.5419 7.15587 12.5602 7.24544 12.5593C7.335 12.5584 7.42333 12.5383 7.50449 12.5004C7.58564 12.4625 7.65773 12.4077 7.7159 12.3396L12.2826 7.08225C12.3953 6.95195 12.4528 6.78291 12.4431 6.61092C12.4333 6.43892 12.357 6.27747 12.2303 6.16075Z" fill="#656565"/>
</svg>
