<svg width="17" height="21" viewBox="0 0 17 21" fill="none" xmlns="http://www.w3.org/2000/svg">
<path d="M5.33333 16.1667V14V16.1667ZM8.58333 16.1667V11.8333V16.1667ZM11.8333 16.1667V9.66667V16.1667ZM14 20.5H3.16667C2.59203 20.5 2.04093 20.2717 1.6346 19.8654C1.22827 19.4591 1 18.908 1 18.3333V3.16667C1 2.59203 1.22827 2.04093 1.6346 1.6346C2.04093 1.22827 2.59203 1 3.16667 1H9.21817C9.50546 1.00006 9.78097 1.11424 9.98408 1.31742L15.8493 7.18258C16.0524 7.3857 16.1666 7.66121 16.1667 7.9485V18.3333C16.1667 18.908 15.9384 19.4591 15.5321 19.8654C15.1257 20.2717 14.5746 20.5 14 20.5Z" stroke="#656565" stroke-linecap="round" stroke-linejoin="round"/>
</svg>
