<svg width="19" height="19" viewBox="0 0 19 19" fill="none" xmlns="http://www.w3.org/2000/svg">
<path d="M6.53125 14.25H12.4688V15.4375H6.53125V14.25Z" fill="#656565"/>
<path d="M7.71875 16.625H11.2812V17.8125H7.71875V16.625Z" fill="#656565"/>
<path d="M6.42147 10.7706C5.8654 10.3465 5.42212 9.79219 5.13066 9.15646C4.8392 8.52074 4.7085 7.82311 4.75007 7.125C4.75164 5.8657 5.25259 4.65844 6.14305 3.76798C7.0335 2.87752 8.24077 2.37657 9.50007 2.375V1.1875C7.92587 1.18923 6.41665 1.81534 5.30353 2.92846C4.19041 4.04159 3.5643 5.55081 3.56257 7.125C3.52231 7.98759 3.68758 8.8474 4.04475 9.6336C4.40193 10.4198 4.94079 11.1099 5.61694 11.647C6.21782 12.2022 6.53132 12.5168 6.53132 13.0625H7.71882C7.71882 11.97 7.05975 11.3608 6.42147 10.7706Z" fill="#656565"/>
<path d="M12.4688 5.69406L10.3372 3.5625L9.5 4.39969L12.4688 7.36844L17.8125 2.02469L16.9753 1.1875L12.4688 5.69406Z" fill="#656565"/>
<path d="M14.1312 8.3125C13.9123 9.28781 13.3622 10.1571 12.5744 10.7724C11.9385 11.3614 11.2812 11.97 11.2812 13.0625H12.4687C12.4687 12.5163 12.7811 12.2016 13.3802 11.6458C14.4214 10.8133 15.1198 9.62686 15.3425 8.3125H14.1312Z" fill="#656565"/>
</svg>
