<svg width="18" height="14" viewBox="0 0 18 14" fill="none" xmlns="http://www.w3.org/2000/svg">
<circle cx="4" cy="5" r="1.5" stroke="#656565"/>
<circle cx="14" cy="5" r="1.5" stroke="#656565"/>
<circle cx="9" cy="3" r="2.5" stroke="#656565"/>
<path d="M17.4839 13.5C17.4021 12.1939 17.0124 10.7454 16.4223 9.92344C15.7435 8.97803 14.8647 8.5 14 8.5C13.1353 8.5 12.2565 8.97803 11.5777 9.92344C10.9876 10.7454 10.5979 12.1939 10.5161 13.5H14H17.4839Z" stroke="#656565"/>
<path d="M7.48395 13.5C7.40214 12.1939 7.01241 10.7454 6.42227 9.92344C5.74351 8.97803 4.86472 8.5 4 8.5C3.13529 8.5 2.25649 8.97803 1.57774 9.92344C0.987588 10.7454 0.597856 12.1939 0.516054 13.5H4H7.48395Z" stroke="#656565"/>
<path d="M15.4788 13.5C15.3535 11.9859 14.6783 10.2626 13.6095 9.2702C12.3929 8.14048 10.7354 7.5 9 7.5C7.26463 7.5 5.60711 8.14048 4.39048 9.2702C3.32172 10.2626 2.64646 11.9859 2.52118 13.5H9H15.4788Z" fill="white" stroke="#656565"/>
</svg>
