<svg width="19" height="20" viewBox="0 0 19 20" fill="none" xmlns="http://www.w3.org/2000/svg">
<path d="M15.4375 5.625H3.5625C2.57874 5.625 1.78125 6.46447 1.78125 7.5V15C1.78125 16.0355 2.57874 16.875 3.5625 16.875H15.4375C16.4213 16.875 17.2188 16.0355 17.2188 15V7.5C17.2188 6.46447 16.4213 5.625 15.4375 5.625Z" stroke="#656565" stroke-linejoin="round"/>
<path d="M15.2653 5.62535V4.45347C15.2652 4.16605 15.2049 3.8822 15.0886 3.62216C14.9723 3.36212 14.8029 3.1323 14.5925 2.94911C14.3821 2.76591 14.1358 2.63386 13.8714 2.56237C13.6069 2.49087 13.3307 2.4817 13.0625 2.5355L3.28938 4.29136C2.86496 4.3765 2.48208 4.61487 2.20676 4.96536C1.93145 5.31586 1.78096 5.7565 1.78125 6.21129V8.12535" stroke="#656565" stroke-linejoin="round"/>
<path d="M13.6563 12.5C13.4214 12.5 13.1918 12.4267 12.9965 12.2893C12.8012 12.152 12.649 11.9568 12.5591 11.7284C12.4693 11.5 12.4457 11.2486 12.4916 11.0061C12.5374 10.7637 12.6505 10.5409 12.8166 10.3661C12.9826 10.1913 13.1942 10.0723 13.4246 10.024C13.6549 9.97579 13.8937 10.0005 14.1107 10.0952C14.3277 10.1898 14.5131 10.35 14.6436 10.5555C14.7741 10.7611 14.8438 11.0028 14.8438 11.25C14.8438 11.5815 14.7186 11.8995 14.4959 12.1339C14.2732 12.3683 13.9712 12.5 13.6563 12.5Z" fill="#656565"/>
</svg>
